<svg xmlns="http://www.w3.org/2000/svg" class="icon icon-share" width="24" height="24" viewBox="0 0 24 24" fill="none">
<path d="M6.76727 14.769C8.29666 14.769 9.53648 13.5291 9.53648 11.9997C9.53648 10.4704 8.29666 9.23053 6.76727 9.23053C5.23787 9.23053 3.99805 10.4704 3.99805 11.9997C3.99805 13.5291 5.23787 14.769 6.76727 14.769Z" stroke="currentColor" stroke-width="0.861611" stroke-linecap="round" stroke-linejoin="round"/>
<path d="M17.2302 20.0002C18.7595 20.0002 19.9994 18.7604 19.9994 17.231C19.9994 15.7017 18.7595 14.4618 17.2302 14.4618C15.7008 14.4618 14.4609 15.7017 14.4609 17.231C14.4609 18.7604 15.7008 20.0002 17.2302 20.0002Z" stroke="currentColor" stroke-width="0.861611" stroke-linecap="round" stroke-linejoin="round"/>
<path d="M17.2302 9.53777C18.7595 9.53777 19.9994 8.29794 19.9994 6.76855C19.9994 5.23915 18.7595 3.99933 17.2302 3.99933C15.7008 3.99933 14.4609 5.23915 14.4609 6.76855C14.4609 8.29794 15.7008 9.53777 17.2302 9.53777Z" stroke="currentColor" stroke-width="0.861611" stroke-linecap="round" stroke-linejoin="round"/>
<path d="M9.24219 10.7689L14.756 7.99969" stroke="currentColor" stroke-width="0.861611" stroke-linecap="round" stroke-linejoin="round"/>
<path d="M9.24219 13.2309L14.756 16.0001" stroke="currentColor" stroke-width="0.861611" stroke-linecap="round" stroke-linejoin="round"/>
</svg>