<svg xmlns="http://www.w3.org/2000/svg" width="12" height="12" viewBox="0 0 12 12" fill="none" class="icon icon-hamburger">
  <path d="M8.77004 4.40501C9.58739 4.40501 10.25 3.74239 10.25 2.92501C10.25 2.10763 9.58739 1.44501 8.77004 1.44501C7.95264 1.44501 7.29004 2.10763 7.29004 2.92501C7.29004 3.74239 7.95264 4.40501 8.77004 4.40501Z" fill="currentColor"/>
  <path d="M3.23 4.40501C4.04738 4.40501 4.71 3.74239 4.71 2.92501C4.71 2.10763 4.04738 1.44501 3.23 1.44501C2.41262 1.44501 1.75 2.10763 1.75 2.92501C1.75 3.74239 2.41262 4.40501 3.23 4.40501Z" fill="currentColor"/>
  <path d="M8.77004 10.555C9.58739 10.555 10.25 9.89235 10.25 9.07495C10.25 8.2576 9.58739 7.59495 8.77004 7.59495C7.95264 7.59495 7.29004 8.2576 7.29004 9.07495C7.29004 9.89235 7.95264 10.555 8.77004 10.555Z" fill="currentColor"/>
  <path d="M3.23 10.555C4.04738 10.555 4.71 9.89235 4.71 9.07495C4.71 8.2576 4.04738 7.59495 3.23 7.59495C2.41262 7.59495 1.75 8.2576 1.75 9.07495C1.75 9.89235 2.41262 10.555 3.23 10.555Z" fill="currentColor"/>
</svg>