<svg xmlns="http://www.w3.org/2000/svg" width="24" height="24" viewBox="0 0 24 24" fill="none" class="icon icon-cart-empty">
            <path d="M3.86327 16.4552C3.00532 13.0234 2.57635 11.3075 3.47718 10.1538C4.37801 9 6.14672 9 9.68413 9H14.3148C17.8522 9 19.6209 9 20.5218 10.1538C21.4226 11.3075 20.9936 13.0234 20.1357 16.4552C19.59 18.6379 19.3172 19.7292 18.5034 20.3646C17.6896 21 16.5647 21 14.3148 21H9.68413C7.43427 21 6.30934 21 5.49556 20.3646C4.68178 19.7292 4.40894 18.6379 3.86327 16.4552Z" stroke="currentColor"/>
            <path d="M19.5 9.5L18.7896 6.89465C18.5157 5.89005 18.3787 5.38775 18.0978 5.00946C17.818 4.63273 17.4378 4.34234 17.0008 4.17152C16.5619 4 16.0413 4 15 4M4.5 9.5L5.2104 6.89465C5.48432 5.89005 5.62128 5.38775 5.90221 5.00946C6.18199 4.63273 6.56216 4.34234 6.99922 4.17152C7.43808 4 7.95872 4 9 4" stroke="currentColor"/>
            <path d="M9 4C9 3.44772 9.44772 3 10 3H14C14.5523 3 15 3.44772 15 4C15 4.55228 14.5523 5 14 5H10C9.44772 5 9 4.55228 9 4Z" stroke="currentColor"/>
        </svg>